<svg xmlns="http://www.w3.org/2000/svg" viewBox="0 0 24 24" width="24" height="24" fill="none" stroke="#1c1a18" stroke-width="1.9" stroke-linecap="round" stroke-linejoin="round"><circle cx="12" cy="12" r="2.7"></circle><path d="M18.6 12c0-.5-.05-1-.14-1.46l1.7-1.28-1.6-2.77-2 .8a6.4 6.4 0 0 0-2.53-1.46L13.5 3.6h-3l-.43 2.23A6.4 6.4 0 0 0 7.54 7.3l-2-.8-1.6 2.77 1.7 1.28c-.09.47-.14.96-.14 1.46s.05.99.14 1.46l-1.7 1.28 1.6 2.77 2-.8a6.4 6.4 0 0 0 2.53 1.46l.43 2.23h3l.43-2.23a6.4 6.4 0 0 0 2.53-1.46l2 .8 1.6-2.77-1.7-1.28c.09-.47.14-.96.14-1.46z"></path></svg>